<svg xmlns="http://www.w3.org/2000/svg" version="1.1" xmlns:xlink="http://www.w3.org/1999/xlink" width="512" height="512" x="0" y="0" viewBox="0 0 512 512" style="enable-background:new 0 0 512 512" xml:space="preserve" class=""><g><path d="M29.653 201.648.957 289.816c-2.599 8.006.208 16.843 7.07 21.834l247.972 180.183-79.366-155.859-146.98-134.326zM482.347 201.648l28.696 88.168c2.599 8.006-.208 16.843-7.07 21.834L256.001 491.832l87.212-184.854 139.134-105.33z" style="" fill="#ffa100" data-original="#ffa100"></path><path d="m256 491.832-.001-178.6-94.302-111.585-65.97-32.822-66.074 32.822L256 491.832zM256 491.832l.001-189.402 94.302-100.783 71.367-32.822 60.677 32.822L256 491.832z" style="" fill="#ff6d18" data-original="#ff6d18"></path><path d="m256 491.832 94.302-290.185H161.698L256 491.832z" style="" fill="#fc3819" data-original="#fc3819"></path><path d="M29.654 201.65h132.148L104.929 26.874c-2.911-8.942-15.596-8.942-18.611 0L29.654 201.65zM482.346 201.65H350.198l56.769-174.776c2.911-8.942 15.596-8.942 18.611 0l56.768 174.776z" style="" fill="#fc3819" data-original="#fc3819"></path></g></svg>