<svg xmlns="http://www.w3.org/2000/svg" version="1.1" xmlns:xlink="http://www.w3.org/1999/xlink" width="512" height="512" x="0" y="0" viewBox="0 0 98 98" style="enable-background:new 0 0 512 512" xml:space="preserve" class=""><g><linearGradient id="a" x1="49" x2="49" y1="6.55" y2="95.559" gradientUnits="userSpaceOnUse"><stop offset="0" style="stop-color:#00EFD1" stop-color="#00efd1"></stop><stop offset="1" style="stop-color:#00ACEA" stop-color="#00acea"></stop></linearGradient><path d="M80.9 51c4.3-4.7 7.3-9.4 8.4-13.5.9-3.4.6-6.5-.8-9-3.6-6.2-12.8-7.1-23.5-4.8C61.6 13.3 56.3 6 49 6c-6.7 0-12.4 6.8-16 17.8-1.3-.3-2.5-.5-3.8-.7-9.8-1.4-16.9.5-19.7 5.5-1.4 2.5-1.7 5.6-.8 9 1.1 4.2 4.1 8.8 8.4 13.5-4.3 4.7-7.3 9.4-8.4 13.5-.9 3.4-.6 6.5.8 9 2.3 3.9 7.1 5.9 13.8 5.9 1.8 0 3.8-.2 5.9-.5 1.2-.2 2.5-.4 3.8-.7 3.5 11 9.3 17.8 16 17.8 7.3 0 12.6-7.4 15.9-17.8 3.5.8 6.8 1.2 9.9 1.2 6.3 0 11.2-1.8 13.7-6 1.4-2.4 1.7-5.5.8-8.9-1.1-4.3-4.1-8.8-8.4-13.6zM14.7 70.5c-.6-1.1-.7-2.6-.2-4.4.8-2.9 3.1-6.7 6.8-10.9 2.5 2.3 5.4 4.6 8.4 6.8.4 3.7.9 7.2 1.7 10.5-8.6 1.8-14.9 1.1-16.7-2zM25.5 51c1.1-1 2.4-2.1 3.7-3.1v6.2C27.9 53 26.7 52 25.5 51zm4.2-11c-3.1 2.2-5.9 4.5-8.4 6.8-3.8-4.1-6-7.9-6.8-10.9-.5-1.8-.4-3.3.2-4.4 1.1-2 4.2-3 8.4-3 2.4 0 5.2.3 8.3 1-.7 3.3-1.3 6.8-1.7 10.5zm31.9-4.5c-.9-.5-1.8-1.1-2.7-1.6-.9-.4-1.8-.9-2.7-1.4 1.5-.6 3.1-1.1 4.5-1.6.3 1.6.6 3.1.9 4.6zm-21.7-13c2.6-6.6 6-10.5 9.1-10.5s6.5 3.9 9.1 10.4c.4.9.7 1.9 1.1 2.9-3.3 1-6.7 2.3-10.1 3.8-3.4-1.5-6.9-2.8-10.2-3.8.3-1.1.6-2 1-2.8zM37.3 31c1.5.4 2.9 1 4.5 1.5L39.1 34c-.9.5-1.8 1.1-2.7 1.6.3-1.6.6-3.1.9-4.6zm-.9 35.5c.9.5 1.8 1.1 2.7 1.6l2.7 1.5c-1.5.6-3 1.1-4.5 1.5-.3-1.6-.6-3.1-.9-4.6zm21.7 13.3c-2.6 6.5-6 10.4-9.1 10.4s-6.5-3.9-9.1-10.5c-.4-.9-.7-1.9-1-2.9 3.3-1 6.7-2.3 10.2-3.8 3.4 1.5 6.8 2.8 10.1 3.8-.4 1-.7 2-1.1 3zm2.6-8.8c-1.5-.5-3-1-4.5-1.6l2.7-1.5c.9-.4 1.8-1 2.7-1.5-.3 1.6-.6 3.1-.9 4.6zm1.8-12.2c-2 1.4-4.2 2.8-6.6 4.1-2.3 1.3-4.7 2.5-6.9 3.6-2.3-1.1-4.6-2.3-6.9-3.6-2.4-1.3-4.5-2.7-6.6-4.1-.2-2.5-.3-5.1-.3-7.7s.1-5.2.3-7.7c2.1-1.4 4.2-2.7 6.6-4.1 2.3-1.3 4.6-2.5 6.9-3.6 2.3 1.1 4.6 2.3 6.9 3.6 2.4 1.3 4.5 2.7 6.6 4.1a99.08 99.08 0 0 1 0 15.4zm12.3-30.3c4.3 0 7.4 1.1 8.6 3.1.6 1.1.7 2.6.2 4.4-.8 2.9-3.1 6.7-6.8 10.9-2.5-2.3-5.4-4.6-8.5-6.8-.4-3.6-1-7.2-1.7-10.5a32 32 0 0 1 8.2-1.1zM68.7 48c1.3 1 2.5 2 3.7 3-1.1 1-2.4 2.1-3.7 3.1 0-1.1.1-2.1.1-3.1s0-2-.1-3zm14.6 22.5c-1.8 3.1-8.1 3.9-16.8 2.1.8-3.4 1.3-6.9 1.7-10.5 3.1-2.2 5.9-4.5 8.5-6.8 3.8 4.1 6 7.9 6.8 10.9.5 1.8.4 3.3-.2 4.3z" class="st0" style="fill:url(#a)" fill=""></path><linearGradient id="b" x1="49" x2="49" y1="6.55" y2="95.559" gradientUnits="userSpaceOnUse"><stop offset="0" style="stop-color:#00EFD1" stop-color="#00efd1"></stop><stop offset="1" style="stop-color:#00ACEA" stop-color="#00acea"></stop></linearGradient><path d="M49 42c-5 0-9 4-9 9s4 9 9 9 9-4 9-9-4-9-9-9zm0 12c-1.7 0-3-1.3-3-3s1.3-3 3-3 3 1.3 3 3-1.3 3-3 3z" class="st1" style="fill:url(#b)" fill=""></path></g></svg>